<?xml version="1.0" encoding="utf-8"?>
<!-- Generator: Adobe Illustrator 27.5.0, SVG Export Plug-In . SVG Version: 6.00 Build 0)  -->
<svg version="1.1" id="Layer_1" xmlns="http://www.w3.org/2000/svg" xmlns:xlink="http://www.w3.org/1999/xlink" x="0px" y="0px"
	 viewBox="305.393 278.85 28.417 26.079" style="enable-background:new 305.393 278.85 28.417 26.079;" xml:space="preserve">
<rect x="305.432" y="278.851" style="fill:#FFFFFF;" width="28.418" height="26.077"/>
<g>
	<path style="fill:#1B8ADD;" d="M313.239,296.553l-0.156-0.378h-0.519l-0.162,0.378h-0.298l0.608-1.459h0.213l0.611,1.459H313.239z
		 M312.818,295.476l-0.156,0.44h0.312L312.818,295.476z"/>
	<path style="fill:#1B8ADD;" d="M314.279,296.578c-0.162,0-0.267-0.045-0.379-0.165v0.14h-0.241v-1.459h0.263v0.467
		c0.101-0.101,0.198-0.14,0.34-0.14c0.314,0,0.551,0.248,0.551,0.576C314.811,296.327,314.586,296.578,314.279,296.578z
		 M314.224,295.66c-0.184,0-0.319,0.14-0.319,0.337c0,0.201,0.135,0.34,0.325,0.34c0.187,0,0.318-0.138,0.318-0.337
		C314.547,295.805,314.411,295.66,314.224,295.66z"/>
	<path style="fill:#1B8ADD;" d="M315.294,296.578c-0.217,0-0.373-0.118-0.4-0.372h0.264c0.026,0.092,0.07,0.131,0.147,0.131
		c0.067,0,0.118-0.045,0.118-0.105c0-0.064-0.01-0.08-0.186-0.141c-0.216-0.072-0.304-0.163-0.304-0.323
		c0-0.189,0.161-0.334,0.363-0.334c0.186,0,0.35,0.123,0.359,0.329h-0.257c-0.012-0.059-0.047-0.088-0.103-0.088
		c-0.057,0-0.101,0.039-0.101,0.093c0,0.058,0.006,0.061,0.186,0.118c0.228,0.071,0.304,0.157,0.304,0.32
		C315.686,296.415,315.514,296.578,315.294,296.578z"/>
	<path style="fill:#1B8ADD;" d="M316.155,295.697v0.855h-0.263v-0.855h-0.128v-0.237h0.128v-0.366h0.263v0.366h0.157v0.237H316.155z
		"/>
	<path style="fill:#1B8ADD;" d="M316.708,295.945v0.607h-0.262v-1.093h0.24v0.105c0.069-0.099,0.125-0.131,0.238-0.131h0.019v0.253
		C316.784,295.691,316.708,295.775,316.708,295.945z"/>
	<path style="fill:#1B8ADD;" d="M317.904,296.553v-0.142c-0.104,0.119-0.209,0.168-0.363,0.168c-0.319,0-0.551-0.237-0.551-0.568
		c0-0.333,0.234-0.576,0.557-0.576c0.158,0,0.268,0.051,0.357,0.172v-0.146h0.241v1.093H317.904z M317.575,295.675
		c-0.188,0-0.32,0.141-0.32,0.34c0,0.193,0.132,0.322,0.324,0.322c0.199,0,0.317-0.143,0.317-0.323
		C317.896,295.815,317.762,295.675,317.575,295.675z"/>
	<path style="fill:#1B8ADD;" d="M318.879,296.578c-0.324,0-0.586-0.254-0.586-0.573c0-0.32,0.254-0.571,0.578-0.571
		c0.248,0,0.466,0.14,0.55,0.392h-0.296c-0.055-0.102-0.137-0.15-0.254-0.15c-0.183,0-0.313,0.138-0.313,0.33
		c0,0.189,0.137,0.332,0.318,0.332c0.108,0,0.183-0.042,0.249-0.143h0.296C319.331,296.438,319.133,296.578,318.879,296.578z"/>
	<path style="fill:#1B8ADD;" d="M319.909,295.697v0.855h-0.263v-0.855h-0.127v-0.237h0.127v-0.366h0.263v0.366h0.158v0.237H319.909z
		"/>
	<path style="fill:#727271;" d="M321.153,296.578c-0.256,0-0.455-0.165-0.479-0.441h0.283c0.01,0.123,0.077,0.181,0.196,0.181
		c0.117,0,0.199-0.072,0.199-0.178c0-0.059-0.025-0.113-0.068-0.147c-0.043-0.034-0.059-0.039-0.252-0.111
		c-0.197-0.074-0.305-0.214-0.305-0.398c0-0.231,0.189-0.414,0.424-0.414c0.234,0,0.418,0.158,0.434,0.414h-0.281
		c-0.008-0.098-0.063-0.154-0.154-0.154c-0.089,0-0.148,0.062-0.148,0.149c0,0.054,0.025,0.099,0.08,0.133
		c0.02,0.012,0.025,0.013,0.162,0.064c0.295,0.11,0.376,0.238,0.376,0.436C321.619,296.374,321.415,296.578,321.153,296.578z"/>
	<path style="fill:#727271;" d="M322.489,296.553v-0.559c0-0.229-0.061-0.319-0.215-0.319c-0.15,0-0.23,0.083-0.23,0.322v0.556
		h-0.264v-1.459h0.264v0.44c0.078-0.071,0.164-0.102,0.277-0.102c0.262,0,0.428,0.144,0.428,0.503v0.617H322.489z"/>
	<path style="fill:#727271;" d="M323.833,296.553v-0.142c-0.105,0.119-0.211,0.168-0.363,0.168c-0.32,0-0.551-0.237-0.551-0.568
		c0-0.333,0.232-0.576,0.557-0.576c0.158,0,0.266,0.051,0.357,0.172v-0.146h0.242v1.093H323.833z M323.504,295.675
		c-0.189,0-0.32,0.141-0.32,0.34c0,0.193,0.131,0.322,0.322,0.322c0.199,0,0.316-0.143,0.316-0.323
		C323.823,295.815,323.69,295.675,323.504,295.675z"/>
	<path style="fill:#727271;" d="M324.87,296.578c-0.137,0-0.236-0.039-0.338-0.128v0.468h-0.262v-1.458h0.242v0.128
		c0.084-0.099,0.209-0.154,0.357-0.154c0.316,0,0.545,0.24,0.545,0.568C325.415,296.334,325.184,296.578,324.87,296.578z
		 M324.836,295.675c-0.182,0-0.32,0.141-0.32,0.33c0,0.189,0.139,0.332,0.326,0.332c0.172,0,0.309-0.143,0.309-0.328
		C325.151,295.819,325.014,295.675,324.836,295.675z"/>
	<path style="fill:#727271;" d="M326.659,296.123h-0.848c0.031,0.132,0.147,0.214,0.303,0.214c0.107,0,0.172-0.029,0.24-0.106h0.287
		c-0.074,0.224-0.303,0.348-0.521,0.348c-0.334,0-0.594-0.247-0.594-0.568c0-0.322,0.254-0.576,0.578-0.576
		c0.326,0,0.565,0.25,0.565,0.588C326.669,296.062,326.665,296.085,326.659,296.123z M326.106,295.675
		c-0.154,0-0.262,0.076-0.303,0.217h0.607C326.376,295.751,326.268,295.675,326.106,295.675z"/>
</g>
<g>
	<defs>
		<filter id="Adobe_OpacityMaskFilter" filterUnits="userSpaceOnUse" x="312.889" y="288.002" width="6.545" height="6.996">
			<feColorMatrix  type="matrix" values="1 0 0 0 0  0 1 0 0 0  0 0 1 0 0  0 0 0 1 0"/>
		</filter>
	</defs>
	<mask maskUnits="userSpaceOnUse" x="312.889" y="288.002" width="6.545" height="6.996" id="SVGID_1_">
		<g style="filter:url(#Adobe_OpacityMaskFilter);">
			
				<linearGradient id="SVGID_00000176044028661559213180000005338148432312702882_" gradientUnits="userSpaceOnUse" x1="329.8806" y1="311.1895" x2="322.5447" y2="305.0283" gradientTransform="matrix(0.6052 0.7231 -0.7077 0.5031 339.68 -100.0475)">
				<stop  offset="0.1619" style="stop-color:#000000"/>
				<stop  offset="0.6691" style="stop-color:#ABABAB"/>
				<stop  offset="0.9315" style="stop-color:#FFFFFF"/>
			</linearGradient>
			<polygon style="fill:url(#SVGID_00000176044028661559213180000005338148432312702882_);" points="316.764,295.054 
				321.626,294.172 318.223,286.843 316.577,288.919 316.531,292.533 			"/>
		</g>
	</mask>
	<g style="mask:url(#SVGID_1_);">
		<path style="fill:#FFFFFF;" d="M319.412,288.014c-3.374,1.187-1.402,6.985-1.387,6.984c-0.031,0.011-6.385-5.598-3.963-1.253
			c0.189,0.338-1.411-2.005-1.144-2.711c0.105-0.272,0.468-0.35,1.358,0.021c0.746,0.309,1.465,0.78,1.91,1.028
			C316.968,288.458,319.705,287.909,319.412,288.014L319.412,288.014z"/>
		<path style="fill-rule:evenodd;clip-rule:evenodd;fill:#F3F3F3;" d="M317.995,294.964c-0.009-0.007-0.018-0.019-0.031-0.026
			c-0.048-0.04-0.101-0.088-0.151-0.128c-0.168-0.144-0.338-0.289-0.512-0.429c-0.491-0.407-0.979-0.809-1.471-1.178
			c-0.454-0.349-0.942-0.701-1.409-0.973c-0.228-0.132-0.692-0.382-0.894-0.274c-0.156,0.083-0.113,0.326-0.065,0.496
			c0.046,0.174,0.121,0.354,0.2,0.525c0.104,0.235,0.228,0.474,0.357,0.709c-0.087-0.127-0.224-0.353-0.252-0.391
			c-0.193-0.324-0.377-0.649-0.531-0.973c-0.168-0.359-0.428-0.967-0.308-1.282c0.161-0.423,0.919-0.155,1.341,0.021
			c0.36,0.149,0.716,0.336,1.069,0.535c0.277,0.161,0.56,0.337,0.841,0.497l0.017,0.005l0.006-0.01
			c0.279-1.295,0.853-2.487,1.854-3.323c0.273-0.226,0.587-0.435,0.935-0.597c0.068-0.032,0.141-0.062,0.216-0.091
			c-0.518,0.219-0.907,0.542-1.192,0.945c-0.202,0.288-0.343,0.611-0.448,0.954c-0.266,0.94-0.221,2.087-0.016,3.222
			c0.074,0.418,0.169,0.844,0.293,1.278c0.037,0.13,0.076,0.256,0.12,0.385C317.973,294.892,317.983,294.926,317.995,294.964
			L317.995,294.964L317.995,294.964z"/>
		<path style="fill-rule:evenodd;clip-rule:evenodd;fill:#E8E8E8;" d="M317.971,294.931c-0.002-0.002-0.002-0.002-0.002-0.005
			c-0.053-0.044-0.1-0.083-0.155-0.128c-0.172-0.142-0.34-0.289-0.512-0.428c-0.492-0.411-0.979-0.805-1.466-1.177
			c-0.452-0.342-0.944-0.699-1.414-0.971c-0.234-0.133-0.693-0.384-0.902-0.273c-0.16,0.078-0.114,0.33-0.072,0.503
			c0.051,0.172,0.126,0.352,0.204,0.53c0.077,0.164,0.155,0.328,0.243,0.494c-0.041-0.064-0.085-0.131-0.124-0.198
			c-0.19-0.317-0.369-0.641-0.521-0.958c-0.17-0.357-0.427-0.965-0.307-1.273c0.158-0.416,0.91-0.148,1.325,0.02
			c0.357,0.151,0.712,0.336,1.062,0.539c0.279,0.159,0.563,0.335,0.846,0.492l0.031,0.019l0.001-0.022
			c0.284-1.294,0.857-2.477,1.853-3.312c0.202-0.171,0.429-0.331,0.674-0.471c-0.295,0.19-0.538,0.43-0.727,0.704
			c-0.208,0.285-0.349,0.614-0.454,0.959c-0.265,0.935-0.221,2.081-0.02,3.227c0.073,0.408,0.169,0.838,0.296,1.277
			c0.035,0.124,0.075,0.252,0.114,0.377C317.956,294.884,317.964,294.905,317.971,294.931L317.971,294.931z"/>
		<path style="fill-rule:evenodd;clip-rule:evenodd;fill:#DBDEDF;" d="M317.95,294.897c-0.05-0.038-0.089-0.074-0.135-0.109
			c-0.171-0.149-0.343-0.291-0.51-0.429c-0.489-0.408-0.974-0.799-1.466-1.172c-0.452-0.347-0.944-0.698-1.414-0.973
			c-0.238-0.137-0.7-0.387-0.912-0.276c-0.169,0.084-0.123,0.34-0.074,0.514c0.047,0.175,0.123,0.358,0.202,0.532
			c0.039,0.091,0.078,0.183,0.133,0.278c-0.192-0.313-0.367-0.632-0.515-0.943c-0.17-0.352-0.423-0.958-0.31-1.267
			c0.162-0.411,0.906-0.141,1.317,0.027c0.354,0.15,0.71,0.336,1.059,0.536c0.28,0.158,0.558,0.333,0.85,0.496l0.042,0.024
			l0.005-0.036c0.278-1.288,0.846-2.474,1.84-3.301c0.131-0.112,0.275-0.221,0.427-0.32c-0.195,0.158-0.357,0.334-0.498,0.532
			c-0.204,0.288-0.347,0.611-0.446,0.96c-0.271,0.936-0.224,2.083-0.021,3.226c0.073,0.418,0.169,0.845,0.293,1.277
			c0.038,0.13,0.073,0.255,0.119,0.385C317.936,294.869,317.944,294.885,317.95,294.897L317.95,294.897z"/>
		<path style="fill-rule:evenodd;clip-rule:evenodd;fill:#D0D1D3;" d="M317.925,294.864c-0.038-0.032-0.071-0.059-0.106-0.088
			c-0.17-0.145-0.339-0.288-0.508-0.43c-0.492-0.407-0.977-0.798-1.464-1.165c-0.456-0.346-0.942-0.701-1.415-0.979
			c-0.245-0.135-0.706-0.386-0.928-0.272c-0.169,0.085-0.129,0.341-0.077,0.52c0.049,0.175,0.123,0.359,0.199,0.536
			c0.014,0.025,0.022,0.048,0.038,0.07c-0.147-0.246-0.28-0.495-0.396-0.738c-0.168-0.35-0.426-0.955-0.308-1.262
			c0.158-0.403,0.901-0.135,1.304,0.03c0.357,0.15,0.706,0.334,1.058,0.532c0.279,0.161,0.56,0.337,0.85,0.499l0.054,0.031
			l0.007-0.043c0.282-1.285,0.848-2.467,1.832-3.297c0.08-0.068,0.165-0.137,0.252-0.199c-0.125,0.121-0.236,0.252-0.335,0.393
			c-0.203,0.29-0.35,0.616-0.446,0.961c-0.271,0.939-0.226,2.086-0.026,3.23c0.077,0.417,0.174,0.845,0.296,1.28
			c0.036,0.126,0.073,0.255,0.119,0.381C317.921,294.857,317.924,294.86,317.925,294.864L317.925,294.864z"/>
		<path style="fill-rule:evenodd;clip-rule:evenodd;fill:#C5C6C8;" d="M317.897,294.83c-0.021-0.023-0.045-0.045-0.075-0.064
			c-0.171-0.146-0.34-0.289-0.51-0.429c-0.487-0.408-0.972-0.795-1.452-1.162c-0.457-0.35-0.95-0.705-1.424-0.979
			c-0.251-0.143-0.713-0.395-0.94-0.277c-0.17,0.09-0.131,0.348-0.077,0.526c0.035,0.143,0.091,0.283,0.148,0.426
			c-0.102-0.185-0.195-0.372-0.29-0.555c-0.163-0.349-0.417-0.952-0.302-1.251c0.149-0.403,0.892-0.133,1.288,0.03
			c0.356,0.148,0.709,0.336,1.059,0.536c0.277,0.155,0.558,0.332,0.843,0.494l0.071,0.041l0.013-0.058
			c0.278-1.283,0.842-2.459,1.82-3.288c0.042-0.032,0.081-0.065,0.12-0.097c-0.08,0.084-0.153,0.175-0.219,0.271
			c-0.206,0.29-0.35,0.614-0.448,0.963c-0.273,0.941-0.225,2.09-0.025,3.232c0.072,0.414,0.17,0.845,0.294,1.278
			C317.823,294.59,317.861,294.711,317.897,294.83L317.897,294.83z"/>
		<path style="fill-rule:evenodd;clip-rule:evenodd;fill:#BABBBD;" d="M317.875,294.793c-0.016-0.014-0.027-0.021-0.047-0.034
			c-0.172-0.148-0.341-0.288-0.514-0.431c-0.484-0.407-0.969-0.799-1.451-1.167c-0.458-0.342-0.948-0.696-1.424-0.972
			c-0.253-0.147-0.725-0.398-0.952-0.275c-0.175,0.086-0.135,0.348-0.085,0.537c0.028,0.083,0.052,0.168,0.088,0.262
			c-0.069-0.132-0.137-0.265-0.2-0.4c-0.164-0.34-0.421-0.943-0.307-1.243c0.147-0.398,0.887-0.123,1.277,0.039
			c0.353,0.148,0.707,0.334,1.054,0.531c0.282,0.16,0.56,0.338,0.847,0.496l0.079,0.043l0.022-0.066
			c0.275-1.276,0.838-2.452,1.814-3.28c0,0,0.003-0.004,0.004-0.002c-0.04,0.051-0.083,0.104-0.12,0.156
			c-0.211,0.293-0.355,0.619-0.45,0.964c-0.271,0.944-0.232,2.093-0.027,3.242c0.076,0.412,0.172,0.845,0.294,1.278
			C317.811,294.583,317.844,294.686,317.875,294.793L317.875,294.793z"/>
		<path style="fill-rule:evenodd;clip-rule:evenodd;fill:#B0B1B3;" d="M317.849,294.764c-0.003-0.003-0.008-0.01-0.015-0.017
			c-0.173-0.145-0.345-0.29-0.513-0.429c-0.487-0.406-0.972-0.791-1.455-1.162c-0.459-0.348-0.948-0.701-1.422-0.972
			c-0.258-0.15-0.73-0.403-0.964-0.281c-0.178,0.091-0.139,0.35-0.089,0.546c0.016,0.049,0.029,0.089,0.039,0.131
			c-0.046-0.089-0.093-0.179-0.132-0.265c-0.161-0.344-0.414-0.943-0.303-1.243c0.147-0.389,0.879-0.114,1.263,0.046
			c0.354,0.146,0.703,0.33,1.051,0.53c0.278,0.158,0.558,0.332,0.85,0.496l0.098,0.055l0.02-0.077
			c0.26-1.238,0.791-2.373,1.711-3.197c-0.015,0.02-0.029,0.036-0.042,0.058c-0.204,0.291-0.352,0.616-0.451,0.963
			c-0.268,0.947-0.229,2.095-0.026,3.24c0.078,0.418,0.172,0.849,0.293,1.284C317.789,294.568,317.824,294.666,317.849,294.764
			L317.849,294.764z"/>
		<path style="fill-rule:evenodd;clip-rule:evenodd;fill:#A3A6A7;" d="M317.831,294.73c-0.171-0.14-0.336-0.279-0.505-0.419
			c-0.487-0.405-0.97-0.796-1.451-1.159c-0.458-0.344-0.957-0.705-1.43-0.978c-0.26-0.157-0.739-0.403-0.973-0.283
			c-0.185,0.092-0.146,0.357-0.092,0.561c0.005,0.006,0.004,0.014,0.007,0.021c-0.026-0.053-0.054-0.104-0.078-0.16
			c-0.16-0.339-0.414-0.938-0.303-1.231c0.145-0.383,0.875-0.112,1.248,0.044c0.355,0.149,0.701,0.335,1.05,0.533
			c0.284,0.159,0.561,0.332,0.849,0.494l0.112,0.066l0.021-0.091c0.253-1.194,0.761-2.294,1.618-3.11
			c-0.19,0.281-0.321,0.595-0.418,0.928c-0.276,0.943-0.228,2.093-0.025,3.243c0.071,0.416,0.167,0.845,0.292,1.283
			C317.779,294.557,317.801,294.646,317.831,294.73L317.831,294.73z"/>
		<path style="fill-rule:evenodd;clip-rule:evenodd;fill:#979B9A;" d="M317.808,294.7c-0.159-0.138-0.32-0.269-0.474-0.398
			c-0.492-0.404-0.973-0.794-1.454-1.161c-0.462-0.345-0.955-0.703-1.431-0.976c-0.266-0.154-0.737-0.408-0.984-0.281
			c-0.165,0.086-0.151,0.306-0.112,0.498c-0.008-0.023-0.021-0.05-0.031-0.068c-0.158-0.337-0.415-0.939-0.305-1.228
			c0.145-0.376,0.868-0.102,1.238,0.046c0.351,0.15,0.703,0.334,1.045,0.533c0.283,0.16,0.564,0.336,0.852,0.499l0.123,0.069
			l0.022-0.102c0.248-1.153,0.729-2.219,1.536-3.022c-0.157,0.255-0.276,0.535-0.363,0.831c-0.268,0.942-0.226,2.095-0.022,3.242
			c0.073,0.419,0.169,0.85,0.288,1.286C317.76,294.542,317.779,294.624,317.808,294.7L317.808,294.7z"/>
		<path style="fill-rule:evenodd;clip-rule:evenodd;fill:#8D9091;" d="M317.783,294.667c-0.144-0.127-0.297-0.253-0.452-0.377
			c-0.481-0.4-0.961-0.79-1.446-1.154c-0.461-0.349-0.949-0.705-1.43-0.981c-0.273-0.157-0.755-0.404-0.999-0.282
			c-0.145,0.076-0.157,0.256-0.128,0.429c-0.157-0.333-0.406-0.925-0.304-1.21c0.143-0.375,0.866-0.097,1.227,0.053
			c0.351,0.147,0.699,0.329,1.044,0.526c0.282,0.161,0.563,0.34,0.848,0.502l0.145,0.076l0.023-0.109
			c0.236-1.116,0.694-2.154,1.461-2.946c-0.134,0.231-0.239,0.479-0.315,0.743c-0.272,0.94-0.221,2.097-0.022,3.249
			c0.068,0.416,0.168,0.842,0.289,1.281C317.746,294.532,317.766,294.599,317.783,294.667L317.783,294.667z"/>
		<path style="fill-rule:evenodd;clip-rule:evenodd;fill:#828385;" d="M317.763,294.639c-0.144-0.12-0.28-0.238-0.423-0.355
			c-0.485-0.404-0.97-0.792-1.45-1.154c-0.461-0.346-0.953-0.708-1.431-0.983c-0.283-0.16-0.762-0.409-1.011-0.283
			c-0.126,0.069-0.153,0.219-0.14,0.375c-0.158-0.338-0.375-0.876-0.272-1.144c0.138-0.364,0.862-0.087,1.216,0.058
			c0.348,0.149,0.699,0.333,1.042,0.527c0.277,0.16,0.562,0.336,0.849,0.499l0.152,0.086l0.028-0.122
			c0.232-1.079,0.668-2.082,1.384-2.869c-0.107,0.21-0.191,0.426-0.259,0.653c-0.273,0.946-0.228,2.099-0.028,3.252
			c0.074,0.419,0.173,0.851,0.291,1.285C317.729,294.521,317.743,294.576,317.763,294.639L317.763,294.639z"/>
		<path style="fill-rule:evenodd;clip-rule:evenodd;fill:#797A7C;" d="M317.741,294.606c-0.134-0.116-0.264-0.224-0.394-0.332
			c-0.489-0.403-0.969-0.788-1.452-1.153c-0.46-0.35-0.951-0.706-1.432-0.982c-0.288-0.167-0.766-0.416-1.023-0.286
			c-0.119,0.061-0.153,0.186-0.147,0.326c-0.151-0.337-0.344-0.827-0.249-1.081c0.014-0.027,0.03-0.053,0.046-0.077
			c0.199-0.233,0.843,0.009,1.157,0.14c0.349,0.145,0.696,0.329,1.041,0.527c0.28,0.161,0.559,0.337,0.849,0.498l0.168,0.096
			l0.029-0.137c0.22-1.051,0.64-2.021,1.318-2.79c-0.088,0.183-0.159,0.371-0.216,0.567c-0.277,0.945-0.233,2.1-0.033,3.254
			c0.074,0.418,0.175,0.849,0.298,1.283C317.712,294.511,317.727,294.555,317.741,294.606L317.741,294.606z"/>
		<path style="fill-rule:evenodd;clip-rule:evenodd;fill:#6D706F;" d="M317.72,294.575c-0.123-0.107-0.245-0.206-0.37-0.313
			c-0.481-0.396-0.961-0.785-1.448-1.149c-0.46-0.351-0.956-0.707-1.438-0.986c-0.285-0.164-0.771-0.411-1.029-0.284
			c-0.109,0.056-0.149,0.162-0.154,0.283c-0.148-0.329-0.309-0.783-0.224-1.02c0.016-0.028,0.026-0.057,0.046-0.078
			c0.193-0.229,0.842,0.017,1.14,0.145c0.353,0.145,0.697,0.325,1.038,0.525c0.289,0.16,0.561,0.339,0.855,0.5l0.176,0.102
			l0.037-0.148c0.212-1.014,0.608-1.957,1.252-2.715c-0.074,0.156-0.128,0.316-0.177,0.483c-0.277,0.948-0.232,2.099-0.031,3.254
			c0.074,0.42,0.172,0.853,0.294,1.289C317.695,294.501,317.708,294.536,317.72,294.575L317.72,294.575z"/>
		<path style="fill-rule:evenodd;clip-rule:evenodd;fill:#626564;" d="M317.7,294.543c-0.114-0.099-0.231-0.193-0.347-0.287
			c-0.481-0.401-0.962-0.783-1.445-1.151c-0.459-0.347-0.957-0.709-1.438-0.982c-0.297-0.169-0.781-0.422-1.043-0.287
			c-0.102,0.048-0.143,0.144-0.157,0.25c-0.141-0.324-0.286-0.75-0.202-0.973c0.014-0.029,0.025-0.053,0.046-0.076
			c0.187-0.225,0.834,0.021,1.126,0.141c0.355,0.148,0.699,0.332,1.039,0.528c0.281,0.16,0.56,0.335,0.853,0.5l0.188,0.109
			l0.039-0.158c0.208-0.98,0.588-1.899,1.195-2.637c-0.055,0.125-0.101,0.257-0.144,0.396c-0.273,0.948-0.232,2.099-0.031,3.255
			c0.075,0.419,0.174,0.851,0.297,1.286C317.68,294.485,317.689,294.516,317.7,294.543L317.7,294.543z"/>
		<path style="fill-rule:evenodd;clip-rule:evenodd;fill:#575A59;" d="M317.677,294.509c-0.105-0.085-0.216-0.176-0.316-0.26
			c-0.489-0.398-0.964-0.787-1.447-1.148c-0.461-0.354-0.957-0.713-1.436-0.989c-0.302-0.171-0.788-0.424-1.057-0.283
			c-0.092,0.047-0.135,0.124-0.154,0.217c-0.131-0.316-0.262-0.719-0.183-0.927c0.003-0.027,0.021-0.052,0.038-0.074
			c0.189-0.225,0.831,0.022,1.113,0.143c0.354,0.152,0.698,0.331,1.04,0.525c0.28,0.161,0.565,0.338,0.851,0.5l0.208,0.119
			l0.039-0.169c0.197-0.948,0.563-1.839,1.133-2.568c-0.037,0.103-0.074,0.207-0.107,0.312c-0.274,0.949-0.233,2.107-0.029,3.262
			c0.073,0.419,0.17,0.851,0.291,1.288C317.665,294.475,317.674,294.493,317.677,294.509L317.677,294.509z"/>
		<path style="fill-rule:evenodd;clip-rule:evenodd;fill:#4C4D4F;" d="M317.653,294.48c-0.097-0.08-0.192-0.161-0.284-0.237
			c-0.486-0.401-0.968-0.788-1.444-1.151c-0.468-0.351-0.964-0.711-1.446-0.985c-0.309-0.174-0.799-0.426-1.066-0.288
			c-0.082,0.043-0.128,0.109-0.151,0.19c-0.125-0.309-0.242-0.686-0.168-0.884c0.011-0.029,0.021-0.057,0.041-0.074
			c0.185-0.217,0.825,0.027,1.102,0.147c0.354,0.145,0.697,0.332,1.033,0.524c0.28,0.163,0.564,0.337,0.854,0.503l0.223,0.125
			l0.038-0.181c0.196-0.919,0.538-1.784,1.078-2.497c-0.023,0.077-0.052,0.156-0.075,0.232c-0.274,0.949-0.233,2.103-0.034,3.264
			c0.079,0.417,0.175,0.85,0.296,1.291C317.654,294.466,317.653,294.469,317.653,294.48L317.653,294.48z"/>
		<path style="fill-rule:evenodd;clip-rule:evenodd;fill:#404144;" d="M317.634,294.448c-0.083-0.074-0.177-0.148-0.262-0.221
			c-0.483-0.398-0.968-0.781-1.445-1.145c-0.462-0.352-0.959-0.71-1.444-0.986c-0.309-0.177-0.805-0.434-1.079-0.289
			c-0.074,0.036-0.113,0.095-0.14,0.167c-0.125-0.3-0.237-0.653-0.165-0.845c0.011-0.03,0.024-0.055,0.039-0.07
			c0.186-0.213,0.821,0.032,1.096,0.145c0.348,0.149,0.694,0.334,1.034,0.523c0.279,0.166,0.563,0.342,0.85,0.5l0.238,0.142
			l0.038-0.195c0.19-0.892,0.517-1.726,1.028-2.427c-0.013,0.05-0.03,0.101-0.049,0.151c-0.275,0.949-0.232,2.107-0.025,3.267
			C317.413,293.581,317.513,294.015,317.634,294.448L317.634,294.448z"/>
		<path style="fill-rule:evenodd;clip-rule:evenodd;fill:#33373A;" d="M317.618,294.419c-0.083-0.065-0.165-0.129-0.239-0.195
			c-0.484-0.399-0.967-0.786-1.446-1.147c-0.467-0.353-0.961-0.713-1.443-0.991c-0.316-0.175-0.817-0.431-1.097-0.289
			c-0.065,0.035-0.107,0.088-0.132,0.149c-0.113-0.291-0.216-0.628-0.146-0.814c0.003-0.022,0.02-0.047,0.034-0.068
			c0.18-0.206,0.817,0.036,1.081,0.152c0.354,0.146,0.696,0.33,1.035,0.524c0.283,0.158,0.564,0.336,0.849,0.498l0.251,0.143
			l0.044-0.205c0.184-0.858,0.494-1.668,0.974-2.353c-0.003,0.022-0.013,0.044-0.02,0.071c-0.274,0.949-0.235,2.109-0.035,3.269
			C317.398,293.568,317.494,293.993,317.618,294.419L317.618,294.419z"/>
		<path style="fill-rule:evenodd;clip-rule:evenodd;fill:#282C2F;" d="M317.593,294.387c-0.071-0.056-0.14-0.115-0.208-0.174
			c-0.486-0.396-0.968-0.784-1.445-1.142c-0.466-0.358-0.968-0.715-1.448-0.99c-0.32-0.187-0.82-0.438-1.104-0.289
			c-0.057,0.026-0.102,0.074-0.129,0.126c-0.111-0.285-0.202-0.608-0.132-0.781c0.004-0.024,0.017-0.046,0.036-0.062
			c0.169-0.206,0.802,0.037,1.069,0.147c0.346,0.15,0.688,0.33,1.026,0.528c0.283,0.157,0.564,0.335,0.851,0.495l0.267,0.153
			l0.046-0.212c0.172-0.834,0.47-1.617,0.924-2.286c-0.27,0.952-0.228,2.103-0.028,3.259
			C317.388,293.56,317.477,293.969,317.593,294.387L317.593,294.387z"/>
		<path style="fill-rule:evenodd;clip-rule:evenodd;fill:#1C2023;" d="M317.572,294.355c-0.063-0.051-0.124-0.097-0.184-0.148
			c-0.482-0.398-0.962-0.784-1.446-1.146c-0.466-0.351-0.959-0.711-1.445-0.987c-0.329-0.188-0.829-0.44-1.114-0.295
			c-0.056,0.032-0.097,0.069-0.12,0.114c-0.106-0.279-0.193-0.58-0.128-0.75c0.009-0.021,0.02-0.045,0.034-0.061
			c0.17-0.201,0.803,0.047,1.059,0.152c0.346,0.145,0.689,0.331,1.027,0.523c0.282,0.159,0.563,0.338,0.849,0.498l0.282,0.161
			l0.048-0.228c0.171-0.803,0.456-1.561,0.879-2.216c-0.249,0.939-0.202,2.063-0.01,3.189
			C317.369,293.545,317.462,293.95,317.572,294.355L317.572,294.355z"/>
	</g>
	<defs>
		
			<filter id="Adobe_OpacityMaskFilter_00000101809365361884168570000016475652162509555637_" filterUnits="userSpaceOnUse" x="318.249" y="290.079" width="7.225" height="6.078">
			<feColorMatrix  type="matrix" values="1 0 0 0 0  0 1 0 0 0  0 0 1 0 0  0 0 0 1 0"/>
		</filter>
	</defs>
	
		<mask maskUnits="userSpaceOnUse" x="318.249" y="290.079" width="7.225" height="6.078" id="SVGID_00000139984540853632903050000003904993172173576859_">
		<g style="filter:url(#Adobe_OpacityMaskFilter_00000101809365361884168570000016475652162509555637_);">
			
				<linearGradient id="SVGID_00000098180631064021402580000015512842441851125437_" gradientUnits="userSpaceOnUse" x1="337.112" y1="252.8022" x2="330.0228" y2="246.8481" gradientTransform="matrix(0.4082 -0.85 0.7507 0.4365 -2.8024 465.3154)">
				<stop  offset="0.1619" style="stop-color:#000000"/>
				<stop  offset="0.6691" style="stop-color:#ABABAB"/>
				<stop  offset="0.9315" style="stop-color:#FFFFFF"/>
			</linearGradient>
			<polygon style="fill:url(#SVGID_00000098180631064021402580000015512842441851125437_);" points="325.521,291.167 
				322.802,287.24 317.714,293.164 320.197,293.782 323.398,292.379 			"/>
		</g>
	</mask>
	<g style="mask:url(#SVGID_00000139984540853632903050000003904993172173576859_);">
		<path style="fill:#FFFFFF;" d="M318.268,291.649c2.392,2.495,6.708-1.557,6.703-1.57c0.022,0.023-2.377,7.855,0.48,3.988
			c0.223-0.303-1.203,2.042-1.93,2.089c-0.281,0.017-0.494-0.272-0.523-1.204c-0.027-0.778,0.102-1.6,0.141-2.092
			C319.636,293.623,318.06,291.433,318.268,291.649L318.268,291.649z"/>
		<path style="fill-rule:evenodd;clip-rule:evenodd;fill:#F3F3F3;" d="M324.951,290.119c-0.002,0.011-0.01,0.022-0.01,0.038
			c-0.018,0.058-0.037,0.124-0.053,0.184c-0.059,0.206-0.119,0.414-0.172,0.623c-0.164,0.595-0.322,1.184-0.449,1.765
			c-0.125,0.539-0.242,1.109-0.293,1.628c-0.025,0.253-0.06,0.763,0.115,0.896c0.137,0.105,0.332-0.029,0.461-0.141
			c0.137-0.109,0.266-0.248,0.383-0.386c0.166-0.186,0.326-0.391,0.482-0.598c-0.078,0.127-0.221,0.338-0.244,0.378
			c-0.207,0.3-0.42,0.592-0.643,0.857c-0.248,0.29-0.682,0.762-1.006,0.782c-0.438,0.027-0.504-0.747-0.517-1.189
			c-0.012-0.377,0.008-0.764,0.045-1.154c0.029-0.309,0.072-0.628,0.1-0.938l-0.002-0.017l-0.01-0.003
			c-1.252,0.273-2.53,0.244-3.665-0.302c-0.309-0.151-0.619-0.344-0.9-0.585c-0.055-0.047-0.11-0.099-0.166-0.154
			c0.399,0.368,0.839,0.583,1.308,0.673c0.334,0.064,0.676,0.058,1.019,0.014c0.936-0.142,1.926-0.639,2.842-1.274
			c0.338-0.23,0.674-0.484,1.008-0.768c0.1-0.084,0.195-0.17,0.291-0.26C324.896,290.169,324.921,290.146,324.951,290.119
			L324.951,290.119L324.951,290.119z"/>
		<path style="fill-rule:evenodd;clip-rule:evenodd;fill:#E8E8E8;" d="M324.931,290.155c0,0.001,0,0.001-0.004,0.002
			c-0.017,0.065-0.031,0.121-0.049,0.189c-0.057,0.208-0.119,0.415-0.172,0.622c-0.166,0.597-0.318,1.184-0.451,1.758
			c-0.119,0.535-0.238,1.112-0.289,1.634c-0.023,0.26-0.063,0.764,0.121,0.902c0.133,0.11,0.336-0.031,0.471-0.137
			c0.131-0.114,0.26-0.252,0.387-0.392c0.113-0.133,0.227-0.269,0.336-0.411c-0.039,0.062-0.08,0.126-0.125,0.189
			c-0.203,0.293-0.414,0.579-0.635,0.839c-0.246,0.293-0.678,0.762-1,0.779c-0.428,0.027-0.492-0.742-0.51-1.175
			c-0.012-0.375,0.012-0.76,0.049-1.148c0.029-0.31,0.07-0.63,0.096-0.94l0.004-0.037l-0.02,0.009
			c-1.252,0.268-2.522,0.235-3.654-0.308c-0.232-0.109-0.462-0.243-0.685-0.404c0.285,0.184,0.594,0.302,0.91,0.359
			c0.334,0.067,0.679,0.06,1.026,0.015c0.928-0.141,1.92-0.636,2.848-1.271c0.33-0.228,0.67-0.483,1.004-0.771
			c0.098-0.08,0.193-0.167,0.287-0.252C324.896,290.185,324.912,290.171,324.931,290.155L324.931,290.155z"/>
		<path style="fill-rule:evenodd;clip-rule:evenodd;fill:#DBDEDF;" d="M324.91,290.186c-0.014,0.06-0.029,0.108-0.043,0.163
			c-0.063,0.209-0.119,0.417-0.174,0.619c-0.164,0.594-0.313,1.177-0.445,1.758c-0.123,0.537-0.236,1.11-0.289,1.633
			c-0.027,0.265-0.063,0.773,0.119,0.913c0.143,0.117,0.35-0.026,0.482-0.138c0.135-0.111,0.266-0.253,0.387-0.392
			c0.064-0.071,0.131-0.142,0.193-0.228c-0.199,0.293-0.41,0.574-0.625,0.829c-0.242,0.29-0.674,0.755-0.99,0.778
			c-0.428,0.022-0.488-0.741-0.502-1.172c-0.01-0.371,0.01-0.758,0.047-1.145c0.027-0.31,0.07-0.623,0.098-0.946l0.004-0.046
			l-0.033,0.011c-1.244,0.27-2.515,0.243-3.639-0.301c-0.151-0.07-0.306-0.154-0.453-0.248c0.218,0.109,0.435,0.182,0.666,0.227
			c0.335,0.064,0.677,0.06,1.024,0.008c0.934-0.135,1.922-0.634,2.848-1.27c0.338-0.231,0.676-0.486,1.006-0.768
			c0.1-0.085,0.195-0.166,0.291-0.259C324.892,290.21,324.902,290.196,324.91,290.186L324.91,290.186z"/>
		<path style="fill-rule:evenodd;clip-rule:evenodd;fill:#D0D1D3;" d="M324.892,290.222c-0.014,0.046-0.023,0.086-0.035,0.128
			c-0.059,0.208-0.117,0.413-0.176,0.618c-0.162,0.596-0.313,1.179-0.441,1.755c-0.121,0.54-0.238,1.11-0.295,1.636
			c-0.02,0.27-0.057,0.775,0.131,0.924c0.143,0.116,0.352-0.02,0.488-0.139c0.135-0.112,0.268-0.251,0.393-0.39
			c0.018-0.021,0.033-0.037,0.045-0.061c-0.156,0.228-0.322,0.445-0.49,0.645c-0.24,0.286-0.67,0.756-0.986,0.774
			c-0.418,0.021-0.48-0.739-0.494-1.16c-0.01-0.375,0.01-0.754,0.045-1.143c0.029-0.311,0.072-0.629,0.1-0.947l0.006-0.06
			l-0.041,0.011c-1.242,0.267-2.509,0.241-3.633-0.294c-0.092-0.043-0.187-0.09-0.275-0.143c0.157,0.061,0.316,0.108,0.479,0.139
			c0.337,0.061,0.683,0.061,1.024,0.008c0.936-0.135,1.928-0.634,2.854-1.267c0.338-0.234,0.676-0.491,1.01-0.773
			c0.096-0.081,0.195-0.165,0.287-0.256C324.888,290.227,324.888,290.224,324.892,290.222L324.892,290.222z"/>
		<path style="fill-rule:evenodd;clip-rule:evenodd;fill:#C5C6C8;" d="M324.873,290.259c-0.012,0.027-0.021,0.059-0.025,0.092
			c-0.061,0.209-0.119,0.415-0.174,0.621c-0.164,0.591-0.311,1.173-0.441,1.743c-0.127,0.539-0.242,1.116-0.293,1.643
			c-0.025,0.277-0.063,0.785,0.133,0.938c0.145,0.115,0.357-0.022,0.492-0.141c0.111-0.089,0.213-0.193,0.316-0.302
			c-0.123,0.163-0.25,0.319-0.373,0.478c-0.24,0.283-0.672,0.747-0.98,0.765c-0.414,0.031-0.473-0.731-0.488-1.145
			c-0.012-0.373,0.014-0.759,0.049-1.146c0.025-0.306,0.07-0.624,0.1-0.94l0.008-0.079l-0.057,0.013
			c-1.24,0.268-2.501,0.242-3.621-0.288c-0.044-0.023-0.09-0.046-0.132-0.068c0.104,0.038,0.214,0.066,0.324,0.085
			c0.337,0.065,0.681,0.063,1.026,0.01c0.939-0.136,1.93-0.637,2.855-1.269c0.336-0.229,0.676-0.488,1.008-0.77
			C324.691,290.42,324.783,290.339,324.873,290.259L324.873,290.259z"/>
		<path style="fill-rule:evenodd;clip-rule:evenodd;fill:#BABBBD;" d="M324.849,290.293c-0.006,0.019-0.008,0.033-0.012,0.056
			c-0.061,0.21-0.117,0.414-0.174,0.624c-0.166,0.589-0.316,1.172-0.447,1.743c-0.117,0.539-0.234,1.112-0.287,1.641
			c-0.027,0.281-0.061,0.799,0.139,0.948c0.145,0.119,0.361-0.02,0.508-0.14c0.061-0.058,0.125-0.111,0.193-0.182
			c-0.088,0.113-0.178,0.227-0.271,0.336c-0.232,0.28-0.662,0.748-0.971,0.767c-0.41,0.03-0.465-0.73-0.479-1.141
			c-0.01-0.368,0.012-0.755,0.047-1.139c0.029-0.313,0.074-0.628,0.1-0.943l0.006-0.087l-0.066,0.008
			c-1.234,0.268-2.493,0.241-3.613-0.286c0,0-0.004-0.002-0.002-0.003c0.06,0.016,0.124,0.031,0.185,0.044
			c0.342,0.067,0.686,0.064,1.03,0.01c0.938-0.139,1.934-0.631,2.863-1.27c0.332-0.232,0.674-0.488,1.008-0.77
			C324.689,290.434,324.767,290.363,324.849,290.293L324.849,290.293z"/>
		<path style="fill-rule:evenodd;clip-rule:evenodd;fill:#B0B1B3;" d="M324.833,290.327c-0.002,0.005-0.004,0.012-0.008,0.021
			c-0.059,0.209-0.119,0.418-0.172,0.621c-0.164,0.592-0.309,1.172-0.443,1.745c-0.121,0.543-0.238,1.115-0.287,1.639
			c-0.029,0.288-0.063,0.806,0.139,0.962c0.15,0.12,0.363-0.017,0.516-0.141c0.037-0.032,0.066-0.061,0.1-0.086
			c-0.06,0.076-0.121,0.153-0.182,0.221c-0.238,0.28-0.664,0.743-0.973,0.764c-0.4,0.026-0.451-0.728-0.465-1.13
			c-0.012-0.368,0.01-0.749,0.047-1.136c0.029-0.308,0.07-0.624,0.098-0.946l0.01-0.107l-0.076,0.014
			c-1.193,0.265-2.404,0.251-3.497-0.229c0.023,0.005,0.044,0.011,0.067,0.014c0.338,0.063,0.684,0.063,1.027,0.013
			c0.941-0.144,1.936-0.636,2.863-1.272c0.336-0.235,0.678-0.49,1.014-0.77C324.685,290.458,324.757,290.39,324.833,290.327
			L324.833,290.327z"/>
		<path style="fill-rule:evenodd;clip-rule:evenodd;fill:#A3A6A7;" d="M324.81,290.357c-0.055,0.206-0.111,0.407-0.166,0.612
			c-0.162,0.59-0.314,1.171-0.441,1.738c-0.119,0.541-0.238,1.126-0.289,1.649c-0.035,0.292-0.061,0.813,0.141,0.971
			c0.154,0.124,0.371-0.015,0.529-0.144c0.004-0.007,0.012-0.009,0.016-0.014c-0.037,0.044-0.07,0.089-0.109,0.133
			c-0.234,0.276-0.66,0.74-0.963,0.759c-0.396,0.025-0.447-0.726-0.461-1.117c-0.01-0.371,0.016-0.751,0.049-1.136
			c0.027-0.315,0.07-0.627,0.098-0.945l0.014-0.124l-0.088,0.017c-1.152,0.255-2.324,0.248-3.384-0.182
			c0.322,0.057,0.651,0.047,0.984-0.001c0.939-0.135,1.932-0.637,2.863-1.273c0.338-0.229,0.676-0.484,1.012-0.771
			C324.679,290.472,324.75,290.417,324.81,290.357L324.81,290.357z"/>
		<path style="fill-rule:evenodd;clip-rule:evenodd;fill:#979B9A;" d="M324.794,290.39c-0.059,0.195-0.109,0.389-0.16,0.576
			c-0.16,0.595-0.313,1.174-0.441,1.744c-0.121,0.544-0.238,1.121-0.289,1.648c-0.029,0.295-0.064,0.811,0.145,0.979
			c0.143,0.111,0.332,0.012,0.484-0.1c-0.018,0.016-0.035,0.038-0.049,0.055c-0.232,0.273-0.658,0.74-0.957,0.759
			c-0.391,0.022-0.438-0.724-0.455-1.108c-0.008-0.368,0.014-0.752,0.051-1.133c0.027-0.313,0.072-0.629,0.1-0.95l0.01-0.136
			l-0.096,0.023c-1.115,0.242-2.246,0.245-3.274-0.145c0.288,0.036,0.58,0.029,0.877-0.012c0.936-0.14,1.932-0.639,2.861-1.276
			c0.338-0.232,0.68-0.488,1.016-0.768C324.675,290.495,324.738,290.444,324.794,290.39L324.794,290.39z"/>
		<path style="fill-rule:evenodd;clip-rule:evenodd;fill:#8D9091;" d="M324.775,290.425c-0.055,0.177-0.104,0.362-0.15,0.548
			c-0.162,0.584-0.313,1.161-0.439,1.734c-0.123,0.545-0.24,1.117-0.293,1.649c-0.027,0.304-0.053,0.827,0.15,0.992
			c0.125,0.098,0.289,0.037,0.43-0.059c-0.23,0.272-0.65,0.727-0.943,0.751c-0.387,0.025-0.432-0.724-0.443-1.1
			c-0.012-0.367,0.01-0.747,0.045-1.129c0.029-0.314,0.074-0.632,0.103-0.948l0.01-0.157l-0.105,0.023
			c-1.078,0.238-2.174,0.248-3.177-0.109c0.256,0.026,0.518,0.019,0.779-0.02c0.936-0.137,1.934-0.645,2.869-1.278
			c0.338-0.227,0.674-0.484,1.012-0.767C324.671,290.511,324.722,290.467,324.775,290.425L324.775,290.425z"/>
		<path style="fill-rule:evenodd;clip-rule:evenodd;fill:#828385;" d="M324.757,290.454c-0.047,0.174-0.098,0.342-0.143,0.514
			c-0.162,0.589-0.31,1.17-0.438,1.737c-0.119,0.544-0.242,1.121-0.293,1.652c-0.029,0.313-0.057,0.835,0.154,1.003
			c0.111,0.082,0.254,0.048,0.387-0.026c-0.236,0.273-0.621,0.68-0.898,0.696c-0.377,0.023-0.422-0.724-0.436-1.093
			c-0.006-0.366,0.014-0.749,0.047-1.128c0.031-0.308,0.072-0.63,0.102-0.947l0.014-0.168l-0.117,0.023
			c-1.043,0.227-2.1,0.244-3.079-0.071c0.228,0.011,0.453-0.002,0.678-0.033c0.941-0.137,1.938-0.639,2.873-1.274
			c0.34-0.232,0.68-0.491,1.016-0.77C324.668,290.53,324.71,290.495,324.757,290.454L324.757,290.454z"/>
		<path style="fill-rule:evenodd;clip-rule:evenodd;fill:#797A7C;" d="M324.738,290.485c-0.049,0.164-0.09,0.322-0.135,0.479
			c-0.16,0.592-0.307,1.168-0.435,1.738c-0.123,0.545-0.24,1.12-0.291,1.652c-0.031,0.32-0.059,0.841,0.156,1.015
			c0.102,0.08,0.227,0.061,0.346-0.002c-0.234,0.269-0.588,0.634-0.852,0.651c-0.029-0.001-0.059-0.005-0.086-0.009
			c-0.285-0.082-0.328-0.745-0.338-1.075c-0.014-0.364,0.01-0.744,0.047-1.127c0.029-0.311,0.074-0.625,0.1-0.944l0.016-0.187
			l-0.131,0.028c-1.012,0.227-2.035,0.244-2.983-0.046c0.197,0.005,0.39-0.007,0.586-0.035c0.941-0.135,1.941-0.636,2.877-1.27
			c0.338-0.233,0.678-0.494,1.01-0.775C324.665,290.55,324.699,290.519,324.738,290.485L324.738,290.485z"/>
		<path style="fill-rule:evenodd;clip-rule:evenodd;fill:#6D706F;" d="M324.72,290.517c-0.047,0.151-0.084,0.299-0.129,0.451
			c-0.154,0.582-0.307,1.158-0.434,1.733c-0.123,0.545-0.24,1.124-0.293,1.659c-0.029,0.317-0.053,0.842,0.162,1.02
			c0.092,0.073,0.201,0.067,0.311,0.022c-0.23,0.263-0.566,0.584-0.809,0.604c-0.031-0.003-0.059,0-0.086-0.01
			c-0.277-0.079-0.322-0.747-0.328-1.06c-0.014-0.369,0.008-0.744,0.047-1.124c0.025-0.318,0.074-0.63,0.098-0.953l0.02-0.194
			l-0.145,0.025c-0.979,0.22-1.967,0.248-2.89-0.016c0.166,0.002,0.331-0.016,0.496-0.038c0.945-0.135,1.941-0.635,2.877-1.271
			c0.34-0.234,0.682-0.493,1.016-0.774C324.664,290.568,324.689,290.543,324.72,290.517L324.72,290.517z"/>
		<path style="fill-rule:evenodd;clip-rule:evenodd;fill:#626564;" d="M324.699,290.547c-0.041,0.14-0.078,0.281-0.115,0.42
			c-0.16,0.583-0.303,1.159-0.434,1.731c-0.123,0.543-0.244,1.126-0.291,1.659c-0.031,0.329-0.061,0.855,0.162,1.032
			c0.084,0.07,0.186,0.067,0.283,0.037c-0.229,0.255-0.545,0.553-0.773,0.566c-0.031,0-0.057-0.001-0.086-0.009
			c-0.271-0.075-0.316-0.741-0.326-1.048c-0.012-0.372,0.012-0.748,0.051-1.125c0.027-0.312,0.07-0.627,0.098-0.95l0.022-0.209
			l-0.154,0.028c-0.945,0.209-1.906,0.241-2.799,0.002c0.132-0.002,0.267-0.015,0.407-0.031c0.941-0.139,1.939-0.635,2.877-1.273
			c0.34-0.234,0.678-0.493,1.014-0.775C324.656,290.589,324.679,290.568,324.699,290.547L324.699,290.547z"/>
		<path style="fill-rule:evenodd;clip-rule:evenodd;fill:#575A59;" d="M324.677,290.581c-0.031,0.127-0.068,0.26-0.1,0.383
			c-0.158,0.59-0.309,1.161-0.434,1.731c-0.129,0.548-0.246,1.128-0.299,1.66c-0.027,0.334-0.057,0.862,0.174,1.042
			c0.08,0.062,0.164,0.071,0.252,0.051c-0.225,0.242-0.527,0.517-0.74,0.53c-0.027,0.009-0.055,0.003-0.08-0.004
			c-0.273-0.076-0.314-0.74-0.32-1.036c-0.008-0.373,0.012-0.748,0.045-1.125c0.031-0.311,0.072-0.632,0.102-0.948l0.021-0.232
			l-0.164,0.034c-0.914,0.206-1.844,0.24-2.712,0.029c0.105-0.009,0.211-0.017,0.315-0.03c0.945-0.14,1.949-0.636,2.883-1.277
			c0.34-0.232,0.682-0.489,1.018-0.771C324.652,290.605,324.665,290.591,324.677,290.581L324.677,290.581z"/>
		<path style="fill-rule:evenodd;clip-rule:evenodd;fill:#4C4D4F;" d="M324.662,290.614c-0.031,0.116-0.064,0.233-0.096,0.344
			c-0.158,0.589-0.307,1.166-0.438,1.732c-0.121,0.552-0.24,1.132-0.287,1.667c-0.029,0.341-0.057,0.872,0.172,1.054
			c0.07,0.055,0.147,0.068,0.229,0.057c-0.223,0.234-0.508,0.488-0.711,0.501c-0.029,0.002-0.057,0.004-0.082-0.007
			c-0.264-0.075-0.307-0.736-0.311-1.027c-0.014-0.37,0.012-0.747,0.047-1.119c0.033-0.311,0.072-0.631,0.102-0.953l0.023-0.245
			l-0.176,0.038c-0.887,0.194-1.785,0.239-2.628,0.049c0.076-0.01,0.157-0.017,0.235-0.026c0.943-0.138,1.943-0.636,2.887-1.273
			c0.334-0.237,0.678-0.494,1.018-0.777C324.65,290.618,324.652,290.618,324.662,290.614L324.662,290.614z"/>
		<path style="fill-rule:evenodd;clip-rule:evenodd;fill:#404144;" d="M324.642,290.644c-0.033,0.103-0.061,0.215-0.09,0.318
			c-0.158,0.584-0.301,1.163-0.43,1.728c-0.125,0.548-0.242,1.128-0.291,1.666c-0.033,0.343-0.061,0.881,0.178,1.065
			c0.06,0.051,0.127,0.061,0.203,0.057c-0.217,0.228-0.482,0.47-0.68,0.481c-0.031,0.003-0.059,0-0.078-0.005
			c-0.26-0.081-0.299-0.735-0.309-1.023c-0.008-0.365,0.016-0.744,0.045-1.118c0.035-0.311,0.076-0.634,0.102-0.948l0.029-0.266
			l-0.188,0.044c-0.861,0.189-1.725,0.235-2.546,0.064c0.049-0.009,0.101-0.014,0.153-0.018c0.945-0.138,1.947-0.637,2.885-1.282
			C323.966,291.185,324.308,290.923,324.642,290.644L324.642,290.644z"/>
		<path style="fill-rule:evenodd;clip-rule:evenodd;fill:#33373A;" d="M324.623,290.669c-0.025,0.1-0.047,0.196-0.076,0.289
			c-0.158,0.585-0.307,1.165-0.432,1.73c-0.125,0.552-0.244,1.131-0.297,1.666c-0.027,0.349-0.051,0.893,0.184,1.081
			c0.057,0.043,0.121,0.059,0.184,0.057c-0.211,0.215-0.465,0.439-0.656,0.453c-0.022,0.007-0.049,0.002-0.074-0.002
			c-0.252-0.075-0.293-0.733-0.299-1.013c-0.012-0.37,0.014-0.745,0.049-1.121c0.025-0.312,0.07-0.629,0.1-0.945l0.027-0.278
			l-0.199,0.044c-0.828,0.181-1.666,0.23-2.459,0.083c0.02-0.006,0.043-0.007,0.07-0.012c0.943-0.137,1.949-0.635,2.889-1.274
			C323.96,291.202,324.296,290.948,324.623,290.669L324.623,290.669z"/>
		<path style="fill-rule:evenodd;clip-rule:evenodd;fill:#282C2F;" d="M324.605,290.704c-0.022,0.085-0.047,0.169-0.07,0.252
			c-0.154,0.587-0.305,1.165-0.428,1.729c-0.129,0.552-0.244,1.136-0.293,1.67c-0.035,0.356-0.057,0.896,0.186,1.086
			c0.047,0.038,0.107,0.061,0.164,0.065c-0.207,0.21-0.457,0.42-0.635,0.427c-0.025,0.006-0.049,0.003-0.068-0.007
			c-0.25-0.066-0.289-0.721-0.299-1c-0.006-0.364,0.016-0.737,0.055-1.113c0.025-0.313,0.068-0.632,0.096-0.947l0.027-0.295
			l-0.203,0.043c-0.803,0.182-1.611,0.232-2.383,0.101c0.947-0.143,1.943-0.641,2.881-1.277
			C323.958,291.214,324.283,290.974,324.605,290.704L324.605,290.704z"/>
		<path style="fill-rule:evenodd;clip-rule:evenodd;fill:#1C2023;" d="M324.583,290.734c-0.018,0.075-0.033,0.147-0.057,0.222
			c-0.158,0.582-0.307,1.159-0.43,1.73c-0.123,0.55-0.244,1.128-0.293,1.666c-0.033,0.364-0.057,0.906,0.185,1.098
			c0.053,0.037,0.102,0.058,0.148,0.061c-0.203,0.206-0.434,0.403-0.607,0.413c-0.023,0-0.049,0-0.068-0.006
			c-0.244-0.07-0.281-0.724-0.291-0.992c-0.008-0.362,0.018-0.74,0.051-1.113c0.027-0.311,0.074-0.629,0.1-0.946l0.029-0.313
			l-0.219,0.049c-0.775,0.171-1.557,0.223-2.303,0.112c0.928-0.156,1.897-0.646,2.811-1.265
			C323.953,291.237,324.271,290.993,324.583,290.734L324.583,290.734z"/>
	</g>
	<defs>
		
			<filter id="Adobe_OpacityMaskFilter_00000144333497363094109960000009400162143233372597_" filterUnits="userSpaceOnUse" x="317.125" y="283.884" width="6.124" height="7.534">
			<feColorMatrix  type="matrix" values="1 0 0 0 0  0 1 0 0 0  0 0 1 0 0  0 0 0 1 0"/>
		</filter>
	</defs>
	
		<mask maskUnits="userSpaceOnUse" x="317.125" y="283.884" width="6.124" height="7.534" id="SVGID_00000124878307606647804760000007430689455436574348_">
		<g style="filter:url(#Adobe_OpacityMaskFilter_00000144333497363094109960000009400162143233372597_);">
			
				<linearGradient id="SVGID_00000142868514279678815250000014208810210512399243_" gradientUnits="userSpaceOnUse" x1="385.0848" y1="285.2333" x2="377.9957" y2="279.2794" gradientTransform="matrix(-0.9428 0.0188 0.0512 -0.8668 664.8946 526.8981)">
				<stop  offset="0.1619" style="stop-color:#000000"/>
				<stop  offset="0.6691" style="stop-color:#ABABAB"/>
				<stop  offset="0.9315" style="stop-color:#FFFFFF"/>
			</linearGradient>
			<polygon style="fill:url(#SVGID_00000142868514279678815250000014208810210512399243_);" points="317.848,285.139 
				315.568,289.335 323.15,291.207 322.582,288.712 319.887,286.488 			"/>
		</g>
	</mask>
	<g style="mask:url(#SVGID_00000124878307606647804760000007430689455436574348_);">
		<path style="fill:#FFFFFF;" d="M321.548,291.396c1.148-3.26-4.415-5.285-4.423-5.274c0.011-0.029,8.082-1.419,3.344-2.227
			c-0.372-0.062,2.364,0.153,2.733,0.781c0.143,0.242-0.02,0.563-0.838,1.009c-0.684,0.374-1.475,0.631-1.931,0.817
			C322.693,289.285,321.449,291.679,321.548,291.396L321.548,291.396z"/>
		<path style="fill-rule:evenodd;clip-rule:evenodd;fill:#F3F3F3;" d="M317.17,286.12c0.011-0.002,0.024-0.002,0.037-0.009
			c0.061-0.01,0.128-0.021,0.189-0.036c0.211-0.039,0.422-0.079,0.633-0.125c0.605-0.123,1.202-0.248,1.778-0.396
			c0.538-0.131,1.099-0.284,1.585-0.472c0.236-0.092,0.707-0.29,0.748-0.507c0.033-0.168-0.178-0.283-0.334-0.348
			c-0.16-0.072-0.342-0.125-0.518-0.168c-0.24-0.065-0.496-0.115-0.751-0.161c0.149,0.012,0.401,0.045,0.448,0.047
			c0.361,0.051,0.719,0.109,1.055,0.188c0.371,0.09,0.986,0.264,1.152,0.545c0.221,0.377-0.44,0.787-0.828,0.997
			c-0.332,0.182-0.685,0.337-1.051,0.481c-0.289,0.112-0.594,0.219-0.884,0.333l-0.012,0.01l0.002,0.01
			c0.808,0.995,1.358,2.149,1.382,3.407c0.004,0.344-0.027,0.707-0.117,1.066c-0.016,0.071-0.037,0.144-0.063,0.219
			c0.148-0.523,0.143-1.012,0.012-1.471c-0.094-0.328-0.254-0.629-0.447-0.915c-0.548-0.771-1.439-1.431-2.418-1.962
			c-0.359-0.198-0.737-0.384-1.14-0.553c-0.12-0.052-0.239-0.098-0.363-0.143C317.238,286.147,317.205,286.134,317.17,286.12
			L317.17,286.12L317.17,286.12z"/>
		<path style="fill-rule:evenodd;clip-rule:evenodd;fill:#E8E8E8;" d="M317.21,286.121c0.001-0.001,0.001-0.001,0.004,0.003
			c0.065-0.014,0.123-0.026,0.191-0.041c0.209-0.044,0.423-0.08,0.632-0.127c0.608-0.121,1.199-0.25,1.772-0.391
			c0.531-0.134,1.1-0.288,1.588-0.477c0.242-0.096,0.711-0.29,0.752-0.515c0.039-0.168-0.182-0.287-0.336-0.36
			c-0.16-0.065-0.34-0.117-0.523-0.168c-0.17-0.041-0.342-0.081-0.518-0.115c0.072,0.008,0.148,0.015,0.225,0.026
			c0.354,0.049,0.703,0.109,1.035,0.188c0.373,0.088,0.986,0.263,1.147,0.541c0.217,0.37-0.441,0.774-0.818,0.985
			c-0.33,0.18-0.684,0.333-1.049,0.475c-0.289,0.114-0.592,0.221-0.882,0.338l-0.035,0.013l0.018,0.014
			c0.804,0.998,1.347,2.145,1.372,3.4c0.008,0.257-0.008,0.522-0.051,0.793c0.035-0.337,0-0.666-0.092-0.974
			c-0.09-0.329-0.25-0.633-0.447-0.922c-0.545-0.766-1.434-1.428-2.419-1.969c-0.352-0.192-0.733-0.38-1.141-0.55
			c-0.116-0.05-0.236-0.096-0.353-0.143C317.253,286.14,317.232,286.132,317.21,286.121L317.21,286.121z"/>
		<path style="fill-rule:evenodd;clip-rule:evenodd;fill:#DBDEDF;" d="M317.248,286.127c0.059-0.015,0.109-0.022,0.163-0.036
			c0.216-0.038,0.428-0.081,0.633-0.124c0.603-0.121,1.191-0.25,1.769-0.395c0.535-0.131,1.099-0.289,1.589-0.477
			c0.248-0.095,0.717-0.293,0.76-0.518c0.041-0.179-0.18-0.299-0.34-0.368c-0.16-0.071-0.346-0.124-0.523-0.169
			c-0.094-0.026-0.186-0.053-0.291-0.07c0.352,0.045,0.697,0.107,1.023,0.184c0.367,0.085,0.977,0.261,1.141,0.533
			c0.211,0.372-0.443,0.77-0.82,0.976c-0.326,0.176-0.682,0.332-1.043,0.473c-0.287,0.116-0.588,0.218-0.89,0.339l-0.043,0.018
			l0.025,0.025c0.802,0.989,1.351,2.135,1.372,3.384c0.006,0.167,0,0.342-0.017,0.516c0-0.244-0.033-0.471-0.098-0.697
			c-0.094-0.328-0.25-0.631-0.455-0.917c-0.539-0.772-1.431-1.43-2.415-1.969c-0.359-0.198-0.739-0.385-1.14-0.552
			c-0.122-0.051-0.236-0.1-0.363-0.144C317.276,286.132,317.259,286.129,317.248,286.127L317.248,286.127z"/>
		<path style="fill-rule:evenodd;clip-rule:evenodd;fill:#D0D1D3;" d="M317.287,286.127c0.047-0.01,0.087-0.018,0.131-0.027
			c0.212-0.042,0.421-0.082,0.631-0.123c0.604-0.124,1.193-0.252,1.765-0.396c0.537-0.136,1.098-0.287,1.594-0.475
			c0.248-0.103,0.717-0.298,0.766-0.533c0.039-0.178-0.178-0.304-0.344-0.374c-0.162-0.068-0.346-0.125-0.525-0.174
			c-0.027-0.005-0.049-0.013-0.076-0.013c0.275,0.037,0.545,0.088,0.797,0.147c0.363,0.087,0.977,0.257,1.137,0.533
			c0.207,0.363-0.445,0.761-0.813,0.964c-0.332,0.178-0.678,0.33-1.041,0.475c-0.291,0.113-0.594,0.219-0.89,0.338l-0.058,0.022
			l0.028,0.032c0.798,0.989,1.345,2.13,1.376,3.376c0.002,0.102,0.004,0.207-0.004,0.311c-0.016-0.168-0.047-0.332-0.092-0.49
			c-0.098-0.328-0.254-0.636-0.455-0.917c-0.541-0.774-1.434-1.434-2.417-1.976c-0.361-0.195-0.742-0.381-1.144-0.552
			c-0.116-0.049-0.236-0.1-0.36-0.142C317.294,286.128,317.291,286.129,317.287,286.127L317.287,286.127z"/>
		<path style="fill-rule:evenodd;clip-rule:evenodd;fill:#C5C6C8;" d="M317.33,286.126c0.03-0.001,0.061-0.006,0.093-0.018
			c0.214-0.04,0.424-0.082,0.632-0.126c0.602-0.119,1.188-0.251,1.756-0.391c0.538-0.13,1.105-0.287,1.599-0.479
			c0.258-0.102,0.728-0.298,0.777-0.542c0.035-0.181-0.182-0.309-0.35-0.376c-0.129-0.06-0.268-0.103-0.41-0.146
			c0.199,0.036,0.397,0.079,0.594,0.118c0.361,0.087,0.969,0.262,1.125,0.529c0.215,0.356-0.439,0.752-0.803,0.954
			c-0.328,0.177-0.684,0.329-1.045,0.472c-0.285,0.115-0.588,0.22-0.884,0.336l-0.075,0.029l0.037,0.044
			c0.798,0.987,1.343,2.123,1.375,3.362c0,0.05,0,0.102-0.002,0.148c-0.014-0.11-0.037-0.221-0.07-0.328
			c-0.094-0.33-0.25-0.635-0.453-0.92c-0.545-0.776-1.438-1.435-2.419-1.976c-0.357-0.198-0.74-0.384-1.142-0.553
			C317.555,286.217,317.441,286.172,317.33,286.126L317.33,286.126z"/>
		<path style="fill-rule:evenodd;clip-rule:evenodd;fill:#BABBBD;" d="M317.37,286.133c0.021-0.003,0.034-0.008,0.055-0.014
			c0.216-0.041,0.424-0.083,0.637-0.126c0.6-0.118,1.188-0.247,1.757-0.386c0.534-0.139,1.099-0.293,1.593-0.484
			c0.264-0.103,0.74-0.306,0.785-0.551c0.039-0.183-0.18-0.313-0.354-0.39c-0.078-0.028-0.156-0.062-0.25-0.091
			c0.141,0.027,0.281,0.056,0.422,0.092c0.355,0.081,0.967,0.252,1.121,0.521c0.213,0.352-0.441,0.743-0.803,0.94
			c-0.322,0.175-0.678,0.33-1.037,0.471c-0.291,0.115-0.592,0.218-0.886,0.336l-0.079,0.035l0.036,0.056
			c0.796,0.982,1.339,2.117,1.372,3.354c0,0,0.002,0.004,0,0.003c-0.014-0.06-0.029-0.124-0.045-0.185
			c-0.094-0.335-0.252-0.642-0.455-0.923c-0.547-0.775-1.435-1.441-2.425-1.983c-0.357-0.192-0.74-0.382-1.141-0.553
			C317.567,286.212,317.47,286.174,317.37,286.133L317.37,286.133z"/>
		<path style="fill-rule:evenodd;clip-rule:evenodd;fill:#B0B1B3;" d="M317.409,286.132c0.004-0.001,0.012-0.002,0.021-0.003
			c0.213-0.042,0.426-0.083,0.632-0.126c0.603-0.121,1.185-0.253,1.758-0.392c0.54-0.136,1.103-0.29,1.591-0.483
			c0.272-0.103,0.748-0.308,0.797-0.556c0.039-0.189-0.18-0.316-0.357-0.398c-0.045-0.018-0.086-0.031-0.121-0.049
			c0.094,0.019,0.189,0.038,0.277,0.062c0.357,0.086,0.963,0.259,1.121,0.523c0.203,0.346-0.447,0.731-0.799,0.925
			c-0.324,0.176-0.674,0.329-1.035,0.47c-0.289,0.113-0.59,0.219-0.89,0.339l-0.099,0.04l0.046,0.062
			c0.773,0.945,1.308,2.033,1.371,3.225c-0.006-0.023-0.01-0.044-0.018-0.066c-0.096-0.33-0.252-0.638-0.451-0.922
			c-0.553-0.775-1.441-1.441-2.426-1.983c-0.362-0.194-0.742-0.384-1.145-0.557C317.592,286.204,317.497,286.171,317.409,286.132
			L317.409,286.132z"/>
		<path style="fill-rule:evenodd;clip-rule:evenodd;fill:#A3A6A7;" d="M317.445,286.138c0.209-0.044,0.414-0.083,0.621-0.127
			c0.6-0.121,1.188-0.249,1.751-0.391c0.536-0.138,1.112-0.295,1.602-0.485c0.277-0.101,0.754-0.313,0.805-0.563
			c0.041-0.194-0.182-0.325-0.369-0.407c-0.008,0-0.012-0.006-0.018-0.008c0.055,0.013,0.111,0.022,0.166,0.038
			c0.354,0.085,0.959,0.255,1.113,0.517c0.201,0.342-0.447,0.727-0.791,0.915c-0.326,0.176-0.678,0.325-1.035,0.468
			c-0.293,0.118-0.592,0.221-0.888,0.34l-0.117,0.043l0.055,0.071c0.747,0.914,1.268,1.962,1.364,3.103
			c-0.096-0.313-0.252-0.603-0.445-0.877c-0.543-0.778-1.439-1.438-2.427-1.982c-0.356-0.199-0.737-0.386-1.145-0.558
			C317.607,286.204,317.526,286.166,317.445,286.138L317.445,286.138z"/>
		<path style="fill-rule:evenodd;clip-rule:evenodd;fill:#979B9A;" d="M317.48,286.137c0.201-0.035,0.397-0.077,0.588-0.116
			c0.603-0.125,1.188-0.251,1.756-0.393c0.539-0.138,1.109-0.293,1.601-0.485c0.277-0.107,0.752-0.308,0.809-0.571
			c0.035-0.178-0.139-0.301-0.307-0.387c0.022,0.008,0.049,0.014,0.07,0.018c0.35,0.084,0.957,0.255,1.109,0.513
			c0.195,0.337-0.449,0.717-0.785,0.905c-0.324,0.173-0.678,0.327-1.035,0.466c-0.291,0.116-0.592,0.219-0.892,0.339l-0.125,0.052
			l0.063,0.075c0.718,0.886,1.23,1.895,1.347,2.988c-0.098-0.274-0.236-0.531-0.406-0.777c-0.547-0.772-1.44-1.436-2.429-1.979
			c-0.358-0.198-0.742-0.388-1.143-0.561C317.63,286.197,317.555,286.163,317.48,286.137L317.48,286.137z"/>
		<path style="fill-rule:evenodd;clip-rule:evenodd;fill:#8D9091;" d="M317.522,286.14c0.183-0.031,0.37-0.071,0.557-0.113
			c0.595-0.12,1.178-0.245,1.747-0.39c0.541-0.137,1.104-0.289,1.604-0.483c0.283-0.111,0.762-0.325,0.818-0.581
			c0.029-0.156-0.098-0.275-0.246-0.356c0.346,0.083,0.941,0.253,1.096,0.504c0.195,0.333-0.451,0.711-0.783,0.89
			c-0.322,0.176-0.67,0.328-1.027,0.469c-0.293,0.116-0.598,0.219-0.893,0.336l-0.143,0.062l0.067,0.084
			c0.7,0.854,1.202,1.829,1.335,2.885c-0.092-0.24-0.215-0.471-0.367-0.688c-0.545-0.773-1.448-1.435-2.436-1.984
			c-0.354-0.199-0.736-0.382-1.141-0.558C317.645,286.194,317.583,286.168,317.522,286.14L317.522,286.14z"/>
		<path style="fill-rule:evenodd;clip-rule:evenodd;fill:#828385;" d="M317.555,286.142c0.177-0.036,0.35-0.067,0.524-0.103
			c0.598-0.121,1.184-0.25,1.747-0.394c0.539-0.138,1.111-0.288,1.607-0.482c0.293-0.116,0.771-0.327,0.826-0.59
			c0.023-0.137-0.072-0.248-0.197-0.333c0.35,0.086,0.885,0.248,1.025,0.487c0.191,0.326-0.455,0.703-0.779,0.881
			c-0.322,0.171-0.674,0.326-1.027,0.467c-0.289,0.111-0.594,0.22-0.891,0.337l-0.156,0.063l0.074,0.095
			c0.672,0.829,1.165,1.764,1.323,2.78c-0.092-0.208-0.205-0.403-0.334-0.59c-0.547-0.779-1.445-1.443-2.432-1.99
			c-0.36-0.199-0.746-0.385-1.145-0.56C317.664,286.189,317.613,286.165,317.555,286.142L317.555,286.142z"/>
		<path style="fill-rule:evenodd;clip-rule:evenodd;fill:#797A7C;" d="M317.592,286.145c0.169-0.03,0.328-0.063,0.488-0.096
			c0.602-0.123,1.182-0.252,1.749-0.395c0.542-0.135,1.108-0.29,1.606-0.484c0.301-0.117,0.777-0.327,0.836-0.598
			c0.025-0.127-0.049-0.229-0.158-0.308c0.346,0.089,0.83,0.24,0.965,0.466c0.014,0.026,0.023,0.054,0.031,0.082
			c0.057,0.292-0.518,0.629-0.807,0.786c-0.32,0.176-0.67,0.326-1.027,0.466c-0.291,0.113-0.592,0.216-0.888,0.337l-0.174,0.069
			l0.085,0.105c0.659,0.8,1.135,1.706,1.303,2.683c-0.084-0.178-0.182-0.345-0.295-0.508c-0.545-0.779-1.443-1.447-2.432-1.994
			c-0.36-0.198-0.747-0.384-1.146-0.552C317.684,286.181,317.64,286.165,317.592,286.145L317.592,286.145z"/>
		<path style="fill-rule:evenodd;clip-rule:evenodd;fill:#6D706F;" d="M317.629,286.148c0.155-0.027,0.305-0.06,0.459-0.089
			c0.591-0.124,1.173-0.249,1.744-0.395c0.541-0.135,1.111-0.292,1.613-0.486c0.297-0.116,0.775-0.332,0.838-0.604
			c0.023-0.114-0.033-0.21-0.121-0.286c0.34,0.087,0.777,0.242,0.904,0.448c0.012,0.029,0.027,0.053,0.031,0.082
			c0.053,0.284-0.522,0.625-0.799,0.771c-0.324,0.178-0.668,0.329-1.025,0.464c-0.295,0.121-0.594,0.219-0.895,0.343l-0.182,0.07
			l0.088,0.119c0.637,0.773,1.108,1.642,1.289,2.586c-0.074-0.149-0.162-0.288-0.258-0.426c-0.547-0.782-1.442-1.446-2.432-1.993
			c-0.362-0.198-0.747-0.387-1.149-0.559C317.7,286.174,317.665,286.162,317.629,286.148L317.629,286.148z"/>
		<path style="fill-rule:evenodd;clip-rule:evenodd;fill:#626564;" d="M317.665,286.152c0.144-0.025,0.285-0.057,0.427-0.087
			c0.593-0.119,1.171-0.251,1.741-0.392c0.54-0.135,1.114-0.29,1.612-0.488c0.309-0.122,0.791-0.333,0.85-0.611
			c0.023-0.106-0.025-0.195-0.096-0.27c0.33,0.089,0.74,0.237,0.855,0.435c0.014,0.028,0.023,0.052,0.029,0.082
			c0.057,0.276-0.52,0.615-0.787,0.762c-0.328,0.178-0.674,0.327-1.027,0.463c-0.291,0.116-0.592,0.22-0.893,0.34l-0.196,0.076
			l0.095,0.125c0.614,0.75,1.075,1.593,1.264,2.498c-0.063-0.117-0.133-0.231-0.211-0.349c-0.549-0.778-1.442-1.446-2.435-1.995
			c-0.36-0.197-0.745-0.383-1.148-0.554C317.721,286.172,317.693,286.161,317.665,286.152L317.665,286.152z"/>
		<path style="fill-rule:evenodd;clip-rule:evenodd;fill:#575A59;" d="M317.705,286.156c0.128-0.028,0.263-0.056,0.386-0.083
			c0.599-0.125,1.176-0.249,1.742-0.394c0.547-0.131,1.118-0.289,1.616-0.482c0.311-0.125,0.795-0.338,0.853-0.624
			c0.02-0.1-0.012-0.178-0.068-0.248c0.318,0.091,0.697,0.237,0.805,0.422c0.021,0.02,0.029,0.046,0.033,0.073
			c0.055,0.279-0.52,0.613-0.781,0.751c-0.328,0.177-0.672,0.328-1.023,0.468c-0.291,0.113-0.596,0.22-0.892,0.337l-0.217,0.086
			l0.104,0.13c0.596,0.723,1.045,1.538,1.249,2.408c-0.055-0.09-0.109-0.181-0.17-0.269c-0.551-0.781-1.445-1.453-2.439-1.997
			c-0.36-0.199-0.744-0.388-1.146-0.562C317.737,286.168,317.72,286.163,317.705,286.156L317.705,286.156z"/>
		<path style="fill-rule:evenodd;clip-rule:evenodd;fill:#4C4D4F;" d="M317.742,286.156c0.117-0.026,0.237-0.048,0.351-0.07
			c0.596-0.124,1.178-0.251,1.741-0.391c0.547-0.14,1.119-0.295,1.619-0.494c0.316-0.128,0.803-0.343,0.861-0.629
			c0.018-0.087-0.004-0.162-0.053-0.228c0.311,0.092,0.666,0.233,0.77,0.408c0.016,0.025,0.029,0.049,0.029,0.077
			c0.053,0.269-0.518,0.605-0.775,0.74c-0.324,0.179-0.672,0.325-1.022,0.461c-0.291,0.112-0.596,0.221-0.896,0.339l-0.229,0.09
			l0.113,0.139c0.575,0.705,1.018,1.485,1.229,2.325c-0.043-0.065-0.086-0.134-0.131-0.199c-0.549-0.78-1.443-1.448-2.437-2.001
			c-0.363-0.192-0.746-0.382-1.153-0.558C317.75,286.164,317.75,286.162,317.742,286.156L317.742,286.156z"/>
		<path style="fill-rule:evenodd;clip-rule:evenodd;fill:#404144;" d="M317.776,286.16c0.106-0.017,0.22-0.044,0.326-0.064
			c0.591-0.123,1.173-0.256,1.735-0.396c0.546-0.136,1.117-0.293,1.619-0.492c0.32-0.125,0.812-0.344,0.871-0.639
			c0.018-0.077-0.002-0.143-0.043-0.206c0.303,0.089,0.639,0.217,0.738,0.388c0.016,0.027,0.025,0.052,0.029,0.072
			c0.047,0.269-0.52,0.598-0.773,0.737c-0.322,0.171-0.672,0.322-1.018,0.463c-0.295,0.11-0.602,0.218-0.893,0.337l-0.25,0.093
			l0.124,0.147c0.556,0.684,0.986,1.433,1.205,2.243c-0.029-0.04-0.057-0.083-0.086-0.129c-0.547-0.782-1.445-1.45-2.443-1.996
			C318.564,286.519,318.177,286.331,317.776,286.16L317.776,286.16z"/>
		<path style="fill-rule:evenodd;clip-rule:evenodd;fill:#33373A;" d="M317.808,286.165c0.1-0.022,0.197-0.046,0.293-0.061
			c0.594-0.123,1.178-0.253,1.739-0.395c0.549-0.138,1.121-0.293,1.621-0.486c0.324-0.134,0.82-0.357,0.881-0.652
			c0.014-0.07,0-0.133-0.031-0.189c0.287,0.091,0.602,0.218,0.701,0.382c0.016,0.015,0.023,0.043,0.031,0.067
			c0.047,0.259-0.522,0.592-0.77,0.723c-0.324,0.178-0.67,0.325-1.021,0.462c-0.291,0.117-0.594,0.22-0.889,0.337l-0.261,0.102
			l0.128,0.157c0.536,0.658,0.958,1.383,1.184,2.158c-0.014-0.015-0.025-0.035-0.043-0.058c-0.547-0.78-1.445-1.455-2.441-2.004
			C318.583,286.517,318.204,286.331,317.808,286.165L317.808,286.165z"/>
		<path style="fill-rule:evenodd;clip-rule:evenodd;fill:#282C2F;" d="M317.849,286.165c0.084-0.018,0.171-0.034,0.256-0.05
			c0.593-0.128,1.177-0.254,1.736-0.398c0.55-0.134,1.124-0.295,1.624-0.492c0.334-0.128,0.824-0.352,0.885-0.655
			c0.014-0.059,0.006-0.122-0.018-0.174c0.281,0.089,0.582,0.217,0.67,0.374c0.016,0.019,0.021,0.042,0.023,0.064
			c0.053,0.252-0.514,0.583-0.758,0.717c-0.322,0.169-0.666,0.319-1.02,0.453c-0.289,0.119-0.596,0.223-0.888,0.341l-0.274,0.109
			l0.129,0.162c0.524,0.635,0.934,1.332,1.163,2.081c-0.553-0.78-1.447-1.445-2.437-1.995
			C318.595,286.513,318.233,286.331,317.849,286.165L317.849,286.165z"/>
		<path style="fill-rule:evenodd;clip-rule:evenodd;fill:#1C2023;" d="M317.884,286.17c0.076-0.018,0.148-0.036,0.223-0.049
			c0.592-0.122,1.174-0.249,1.739-0.396c0.546-0.139,1.117-0.291,1.619-0.49c0.34-0.135,0.836-0.358,0.896-0.661
			c0.012-0.063,0.006-0.115-0.012-0.16c0.273,0.089,0.555,0.206,0.641,0.357c0.012,0.02,0.023,0.043,0.025,0.063
			c0.049,0.25-0.518,0.577-0.754,0.707c-0.32,0.17-0.668,0.318-1.016,0.457c-0.291,0.116-0.594,0.218-0.889,0.337l-0.292,0.116
			l0.142,0.173c0.502,0.615,0.901,1.288,1.137,2.004c-0.557-0.757-1.431-1.401-2.396-1.939
			C318.617,286.508,318.257,286.333,317.884,286.17L317.884,286.17z"/>
	</g>
	<g>
		<path style="fill:#1B8ADD;" d="M317.103,285.775c1.429-0.297,2.472-0.066,3.273,0.483l0,0c0.342,0.231,0.637,0.528,0.901,0.857
			l0.012,0.022c0.021,0.022,0.043,0.055,0.066,0.077l0.01,0.033c0.143,0.187,0.264,0.385,0.385,0.594
			c0.385,0.681,0.66,1.407,0.9,2.165v-0.011c-0.285-0.748-0.582-1.397-1.076-2.056c-0.131-0.176-0.273-0.341-0.418-0.506
			l-0.021-0.022c-0.318-0.33-0.702-0.66-1.11-0.901h-0.011c-0.209-0.132-0.44-0.242-0.659-0.33c1.68,0.891,2.461,3.529,2.637,5.354
			c-0.33,0.121-0.461,0.242-0.77-0.044c-0.076-0.066-0.131-0.198-0.154-0.242c-0.022-0.066-0.043-0.099-0.098-0.076
			c-0.066,0.032-0.045,0.12-0.045,0.153c0.023,0.099,0.133,0.429,0.154,0.506c0.109,0.34,0.109,0.451,0.133,0.506
			c0.01,0.033,0.031,0.055,0.076,0.043c0.033-0.01,0.066-0.055,0.109-0.088c0.703-0.406,1.188-0.506,1.955-0.813
			c0.209-0.088,0.703-0.264,1.1-0.428c0.109-0.045,0.164-0.088,0.143-0.133c-0.021-0.055-0.076-0.055-0.154-0.033
			c-0.121,0.045-0.252,0.089-0.318,0.1c-0.264,0.033-0.363-0.022-0.484-0.264c-0.098-0.23-0.186-0.44-0.625-1.55
			C321.915,286.423,320.288,284.609,317.103,285.775L317.103,285.775z"/>
		<path style="fill:#1B8ADD;" d="M325.21,290.403c-0.451,1.384-1.164,2.176-2.033,2.604l0,0c-0.385,0.176-0.791,0.297-1.209,0.352
			h-0.01c-0.033,0.012-0.066,0.012-0.109,0.022h-0.033c-0.23,0.022-0.461,0.033-0.703,0.033c-0.781,0-1.549-0.132-2.33-0.286h0.011
			c0.791,0.121,1.505,0.188,2.319,0.088c0.219-0.033,0.428-0.065,0.648-0.121l0.033-0.011c0.439-0.099,0.922-0.286,1.328-0.506
			l0.012-0.011c0.209-0.121,0.428-0.264,0.615-0.406c-1.615,1.022-4.296,0.385-5.965-0.375c0.065-0.341,0.021-0.517,0.417-0.637
			c0.099-0.033,0.241-0.023,0.297-0.023c0.066,0.012,0.099,0.012,0.109-0.044c0.011-0.065-0.076-0.099-0.12-0.109
			c-0.089-0.033-0.418-0.099-0.506-0.121c-0.352-0.077-0.439-0.132-0.494-0.132c-0.044-0.012-0.077,0-0.088,0.043
			c0,0.033,0.022,0.089,0.022,0.133c0.011,0.813-0.143,1.286-0.252,2.1c-0.033,0.23-0.133,0.747-0.188,1.177
			c-0.011,0.12-0.011,0.187,0.044,0.187c0.055,0.011,0.1-0.044,0.11-0.121c0.011-0.121,0.043-0.253,0.065-0.319
			c0.11-0.252,0.209-0.308,0.473-0.296c0.253,0.033,0.473,0.066,1.659,0.231C322.267,294.262,324.65,293.744,325.21,290.403
			L325.21,290.403z"/>
		<path style="fill:#1B8ADD;" d="M317.432,294.954c-1.032-1.022-1.428-2.022-1.417-2.99l0,0c0-0.418,0.077-0.836,0.209-1.231
			l0.011-0.022c0.011-0.032,0.022-0.065,0.033-0.099l0.011-0.022c0.077-0.219,0.176-0.439,0.285-0.648
			c0.352-0.703,0.803-1.341,1.297-1.956h-0.011c-0.45,0.659-0.835,1.264-1.109,2.044c-0.066,0.209-0.132,0.418-0.177,0.627
			l-0.011,0.033c-0.099,0.439-0.153,0.956-0.132,1.419v0.01c0.012,0.254,0.045,0.506,0.088,0.736
			c-0.186-1.901,1.571-4.012,2.988-5.177c0.286,0.209,0.462,0.253,0.396,0.671c-0.022,0.099-0.089,0.219-0.121,0.264
			c-0.033,0.055-0.044,0.088,0,0.121c0.055,0.044,0.121-0.021,0.142-0.055c0.077-0.066,0.286-0.33,0.34-0.406
			c0.22-0.286,0.308-0.33,0.341-0.385c0.022-0.022,0.033-0.066,0-0.088c-0.033-0.022-0.088-0.022-0.133-0.044
			c-0.735-0.363-1.086-0.704-1.768-1.165c-0.186-0.132-0.615-0.44-0.967-0.681c-0.099-0.077-0.165-0.099-0.198-0.055
			c-0.022,0.055,0,0.11,0.077,0.154c0.1,0.066,0.209,0.154,0.253,0.209c0.165,0.209,0.187,0.319,0.044,0.55
			c-0.132,0.209-0.264,0.395-0.934,1.385C315.301,290.589,314.686,292.953,317.432,294.954L317.432,294.954z"/>
	</g>
</g>
</svg>
